# xmcd
#
# Track frame offsets:
#	150
#	56225
#	109495
#	142715
#	189842
#	232435
#
# Disc length: 3869 seconds
#
# Revision: 1
# Processed by: cddbd v1.5.1PL0 Copyright (c) Steve Scherf et al.
# Submitted via: CDex 1.50Beta5
#
DISCID=550f1b06
DTITLE=スアール・アグン - BAMBOO TRANCE
DYEAR=1900
DGENRE=
TTITLE0=TABUH CATUE DING
TTITLE1=TABUH CURING BERO
TTITLE2=SUASTI PRAPTA
TTITLE3=MEBARUNG
TTITLE4=MEBARUNG
TTITLE5=JOGET BUMBUNG
EXTD=
EXTT0=
EXTT1=
EXTT2=
EXTT3=
EXTT4=
EXTT5=
PLAYORDER=
